<svg width="48" height="48" viewBox="0 0 48 48" fill="none" xmlns="http://www.w3.org/2000/svg">
<rect width="48" height="48" fill="white"/>
<path d="M16.0947 30V17.2734H18.7314V22.5469H24.251V17.2734H26.9053V30H24.251V24.7266H18.7314V30H16.0947Z" fill="#7B7E83"/>
<path d="M27.9268 30V28.7988L30.5049 26.5332C31.1006 25.9863 31.4424 25.625 31.4521 25.0879C31.4424 24.502 31.0127 24.1309 30.417 24.1309C29.8115 24.1309 29.4111 24.5117 29.4111 25.1562H27.8291C27.8291 23.7305 28.874 22.832 30.4268 22.832C32.0186 22.832 33.0635 23.6914 33.0635 24.9609C33.0635 25.7715 32.6631 26.4453 31.1299 27.7832L30.2412 28.6035V28.6523H33.1514V30H27.9268Z" fill="#7B7E83"/>
</svg>
