<svg width="48" height="48" viewBox="0 0 48 48" fill="none" xmlns="http://www.w3.org/2000/svg">
<rect width="48" height="48" fill="white"/>
<path d="M15.0947 30V17.2734H17.7314V22.5469H23.251V17.2734H25.9053V30H23.251V24.7266H17.7314V30H15.0947Z" fill="#7B7E83"/>
<path d="M29.4707 30.0977C27.8594 30.0977 26.7168 29.209 26.6973 27.9395H28.377C28.3867 28.4082 28.8555 28.7402 29.4805 28.7402C30.1055 28.7402 30.5547 28.3789 30.5449 27.8711C30.5547 27.3633 30.0762 26.9922 29.334 26.9922H28.6504V25.8008H29.334C29.9785 25.8008 30.4277 25.459 30.4277 24.9512C30.4277 24.4727 30.0469 24.1309 29.4805 24.1309C28.9043 24.1309 28.4453 24.4629 28.4355 24.9609H26.834C26.8535 23.7109 27.9668 22.832 29.4902 22.832C31.0039 22.832 32.0391 23.7012 32.0293 24.8535C32.0391 25.6445 31.4531 26.2012 30.6426 26.3184V26.3672C31.7266 26.4941 32.3027 27.1191 32.293 27.998C32.3027 29.2188 31.1211 30.0977 29.4707 30.0977Z" fill="#7B7E83"/>
</svg>
