<svg width="107" height="85" viewBox="0 0 107 85" fill="none" xmlns="http://www.w3.org/2000/svg">
<g clip-path="url(#clip0_497_172)">
<path d="M105.155 2.71322e-07H1.845C1.60267 -0.000131177 1.3627 0.0475014 1.13879 0.140175C0.914889 0.232848 0.711445 0.368745 0.540095 0.540095C0.368745 0.711445 0.232848 0.914889 0.140175 1.13879C0.0475014 1.3627 -0.000131177 1.60267 2.71322e-07 1.845V83.017C2.71322e-07 84.037 0.826 84.862 1.845 84.862H105.155C105.397 84.8621 105.637 84.8145 105.861 84.7218C106.085 84.6292 106.289 84.4933 106.46 84.3219C106.631 84.1506 106.767 83.9471 106.86 83.7232C106.952 83.4993 107 83.2593 107 83.017V1.845C107 0.825 106.174 2.71322e-07 105.155 2.71322e-07ZM103.31 81.172H3.69V3.69H103.31V81.172Z" fill="#868E96"/>
<path d="M29.5171 40.84C35.1831 40.84 39.7911 36.232 39.7911 30.569C39.7911 24.901 35.1831 20.293 29.5171 20.293C23.8521 20.293 19.2431 24.901 19.2431 30.567C19.2431 36.232 23.8521 40.84 29.5171 40.84ZM29.5171 23.983C31.2626 23.9854 32.9359 24.6798 34.1701 25.914C35.4043 27.1482 36.0987 28.8215 36.1011 30.567C36.0987 32.3124 35.4043 33.9857 34.1701 35.2199C32.9359 36.4542 31.2626 37.1486 29.5171 37.151C27.7719 37.1491 26.0986 36.4551 24.8643 35.2212C23.63 33.9873 22.9355 32.3142 22.9331 30.569C22.9331 26.94 25.8871 23.983 29.5171 23.983ZM12.9141 73.793C13.3623 73.793 13.795 73.6294 14.1311 73.333L44.2261 46.838L63.2311 65.842C63.4023 66.0135 63.6056 66.1496 63.8295 66.2424C64.0533 66.3353 64.2933 66.3831 64.5356 66.3831C64.778 66.3831 65.0179 66.3353 65.2418 66.2424C65.4656 66.1496 65.6689 66.0135 65.8401 65.842C66.0116 65.6708 66.1477 65.4674 66.2406 65.2436C66.3334 65.0198 66.3812 64.7798 66.3812 64.5375C66.3812 64.2951 66.3334 64.0552 66.2406 63.8313C66.1477 63.6075 66.0116 63.4042 65.8401 63.233L56.9721 54.365L73.9091 35.817L94.6841 54.861C95.0483 55.1684 95.5173 55.3231 95.993 55.2926C96.4687 55.2622 96.9141 55.0489 97.2361 54.6974C97.558 54.346 97.7316 53.8836 97.7204 53.4071C97.7093 52.9306 97.5142 52.4769 97.1761 52.141L75.0381 31.846C74.6739 31.5204 74.1984 31.3475 73.7101 31.363C73.2211 31.385 72.7601 31.601 72.4301 31.963L54.3601 51.752L45.6101 43.002C45.2784 42.6708 44.8331 42.4782 44.3646 42.4632C43.8961 42.4482 43.4394 42.6118 43.0871 42.921L11.6931 70.561C11.4112 70.8086 11.2116 71.1364 11.1208 71.5005C11.03 71.8645 11.0523 72.2477 11.1849 72.5987C11.3174 72.9498 11.5539 73.252 11.8626 73.4652C12.1714 73.6784 12.5379 73.7924 12.9131 73.792L12.9141 73.793Z" fill="#868E96"/>
</g>
<defs>
<clipPath id="clip0_497_172">
<rect width="107" height="85" fill="white"/>
</clipPath>
</defs>
</svg>
